<?xml version="1.0" encoding="UTF-8"?>
<!DOCTYPE svg PUBLIC "-//W3C//DTD SVG 1.1//EN" "http://www.w3.org/Graphics/SVG/1.1/DTD/svg11.dtd">
<svg xmlns="http://www.w3.org/2000/svg" version="1.1" width="1200px" height="1200px" style="shape-rendering:geometricPrecision; text-rendering:geometricPrecision; image-rendering:optimizeQuality; fill-rule:evenodd; clip-rule:evenodd" xmlns:xlink="http://www.w3.org/1999/xlink">
<g><path style="opacity:0.986" fill="#393837" d="M 818.5,791.5 C 815.562,789.088 812.229,787.255 808.5,786C 804.5,785.667 800.5,785.333 796.5,785C 792.843,783.178 789.176,781.678 785.5,780.5C 798.077,774.956 809.244,767.289 819,757.5C 825.447,748.585 826.113,739.252 821,729.5C 813.957,719.456 805.29,711.123 795,704.5C 790.721,697.487 792.221,691.987 799.5,688C 801.833,687.333 804.167,687.333 806.5,688C 825.194,698.69 838.028,714.19 845,734.5C 889.589,684.116 913.923,625.116 918,557.5C 920.92,451.133 879.754,366.633 794.5,304C 708.762,248.215 617.762,237.882 521.5,273C 422.772,316.42 363.272,391.253 343,497.5C 335.502,550.35 341.669,601.517 361.5,651C 368.276,648.692 375.276,646.859 382.5,645.5C 392.234,646.296 395.4,651.296 392,660.5C 390.833,661.667 389.667,662.833 388.5,664C 383.5,665.667 378.5,667.333 373.5,669C 372.09,669.368 371.09,670.201 370.5,671.5C 387.146,704.821 409.479,733.821 437.5,758.5C 436.036,759.16 434.369,759.493 432.5,759.5C 427.17,758.97 421.836,758.47 416.5,758C 410.73,752.242 403.73,749.742 395.5,750.5C 377.533,729.255 362.033,706.255 349,681.5C 340.333,686.167 333.667,692.833 329,701.5C 328.011,704.456 327.178,707.456 326.5,710.5C 329.742,723.804 337.075,734.304 348.5,742C 354.232,745.856 359.899,749.69 365.5,753.5C 360.84,752.833 356.174,752.667 351.5,753C 350.626,758.1 349.959,763.266 349.5,768.5C 330.772,758.938 316.939,744.604 308,725.5C 302.373,703.383 308.539,685.216 326.5,671C 331.03,667.638 335.697,664.471 340.5,661.5C 303.764,567.652 309.264,476.319 357,387.5C 413.619,293.732 496.785,241.232 606.5,230C 717.191,224.944 807.358,265.111 877,350.5C 940.929,438.062 957.595,534.062 927,638.5C 906.128,700.508 869.962,751.508 818.5,791.5 Z M 395.5,750.5 C 391.327,751.044 387.327,752.21 383.5,754C 377.478,754.575 371.478,754.409 365.5,753.5C 359.899,749.69 354.232,745.856 348.5,742C 337.075,734.304 329.742,723.804 326.5,710.5C 327.178,707.456 328.011,704.456 329,701.5C 333.667,692.833 340.333,686.167 349,681.5C 362.033,706.255 377.533,729.255 395.5,750.5 Z"/></g>
<g><path style="opacity:1" fill="#c19161" d="M 785.5,780.5 C 782.15,780.335 778.817,780.502 775.5,781C 771.94,783.403 768.273,785.57 764.5,787.5C 761.128,786.299 758.128,784.466 755.5,782C 747.847,779.215 740.847,780.215 734.5,785C 732.167,785.667 729.833,785.667 727.5,785C 717.494,771.055 706.161,769.888 693.5,781.5C 684.587,774.475 675.253,773.808 665.5,779.5C 658.242,769.093 648.575,765.926 636.5,770C 634.027,771.561 632.027,773.561 630.5,776C 614.449,775.511 598.449,774.177 582.5,772C 580.773,768.607 578.106,766.274 574.5,765C 569.47,762.952 564.304,761.452 559,760.5C 553.074,760.88 547.907,763.047 543.5,767C 539.928,768.405 536.261,768.738 532.5,768C 518.387,750.718 502.72,749.051 485.5,763C 479.036,764.535 473.703,762.868 469.5,758C 458.924,750.427 448.757,750.927 439,759.5C 438.617,758.944 438.117,758.611 437.5,758.5C 409.479,733.821 387.146,704.821 370.5,671.5C 371.09,670.201 372.09,669.368 373.5,669C 378.5,667.333 383.5,665.667 388.5,664C 389.667,662.833 390.833,661.667 392,660.5C 395.4,651.296 392.234,646.296 382.5,645.5C 375.276,646.859 368.276,648.692 361.5,651C 341.669,601.517 335.502,550.35 343,497.5C 363.272,391.253 422.772,316.42 521.5,273C 617.762,237.882 708.762,248.215 794.5,304C 879.754,366.633 920.92,451.133 918,557.5C 913.923,625.116 889.589,684.116 845,734.5C 838.028,714.19 825.194,698.69 806.5,688C 804.167,687.333 801.833,687.333 799.5,688C 792.221,691.987 790.721,697.487 795,704.5C 805.29,711.123 813.957,719.456 821,729.5C 826.113,739.252 825.447,748.585 819,757.5C 809.244,767.289 798.077,774.956 785.5,780.5 Z"/></g>
<g><path style="opacity:1" fill="#3a3937" d="M 645.5,255.5 C 657.361,254.185 661.861,259.185 659,270.5C 647.687,283.44 643.02,298.44 645,315.5C 647.74,322.91 652.074,329.243 658,334.5C 668.228,349.781 670.228,366.114 664,383.5C 660.429,394.482 654.929,404.315 647.5,413C 637.923,417.916 632.257,415.083 630.5,404.5C 632.314,399.833 634.814,395.5 638,391.5C 645.011,380.806 647.678,369.139 646,356.5C 643.599,349.433 639.599,343.433 634,338.5C 621.24,318.504 620.24,297.837 631,276.5C 634.856,268.775 639.69,261.775 645.5,255.5 Z"/></g>
<g><path style="opacity:1" fill="#3a3937" d="M 565.5,325.5 C 575.988,324.487 580.488,329.154 579,339.5C 573.038,347.089 568.371,355.422 565,364.5C 562.467,374.118 563.134,383.451 567,392.5C 573.502,399.339 578.836,407.005 583,415.5C 589.477,441.414 583.644,464.248 565.5,484C 554.305,487.318 549.138,483.152 550,471.5C 561.796,458.78 566.796,443.78 565,426.5C 563.941,423.382 562.608,420.382 561,417.5C 541.391,397.706 537.391,375.039 549,349.5C 552.835,340.198 558.335,332.198 565.5,325.5 Z"/></g>
<g><path style="opacity:1" fill="#3a3937" d="M 491.5,428.5 C 502.936,428.044 514.269,428.544 525.5,430C 531.113,435.999 530.779,441.666 524.5,447C 503.863,448.626 483.196,450.293 462.5,452C 442.939,453.853 423.939,458.186 405.5,465C 402.217,466.561 399.383,468.727 397,471.5C 396.333,472.5 396.333,473.5 397,474.5C 399.537,477.372 402.37,479.872 405.5,482C 420.173,489.669 435.507,495.669 451.5,500C 534.689,520.071 619.022,527.405 704.5,522C 721.288,520.485 737.955,518.152 754.5,515C 766.067,512.591 776.9,508.425 787,502.5C 787.667,500.833 787.667,499.167 787,497.5C 778.532,490.345 769.032,484.845 758.5,481C 735.583,473.104 712.249,466.771 688.5,462C 682.737,456.897 682.07,451.23 686.5,445C 688.768,443.448 691.268,442.615 694,442.5C 719.53,446.758 744.363,453.591 768.5,463C 780.624,467.48 791.457,473.98 801,482.5C 805.828,487.324 808.328,493.158 808.5,500C 807.807,505.815 807.474,511.648 807.5,517.5C 828.276,516.553 847.943,520.72 866.5,530C 883.018,540.879 889.185,556.046 885,575.5C 881.611,588.281 875.611,599.614 867,609.5C 830.699,647.236 786.532,670.069 734.5,678C 709.124,705.029 678.791,724.362 643.5,736C 632.592,738.106 621.592,738.773 610.5,738C 581.833,736 553.167,734 524.5,732C 508.465,731.241 493.465,726.908 479.5,719C 442.112,695.273 415.279,662.773 399,621.5C 378.838,569.713 372.171,516.38 379,461.5C 381.833,457.333 385.333,453.833 389.5,451C 402.624,443.552 416.624,438.552 431.5,436C 451.569,432.865 471.569,430.365 491.5,428.5 Z"/></g>
<g><path style="opacity:1" fill="#c19161" d="M 396.5,499.5 C 417.561,510.912 439.894,519.078 463.5,524C 557.079,544.938 651.412,549.272 746.5,537C 759.405,534.816 771.905,531.316 784,526.5C 773.244,606.883 732.744,667.05 662.5,707C 649.377,714.656 635.21,718.156 620,717.5C 584.103,715.781 548.27,713.281 512.5,710C 496.268,705.72 481.935,698.053 469.5,687C 437.998,657.513 417.165,621.68 407,579.5C 400.447,553.234 396.947,526.568 396.5,499.5 Z"/></g>
<g><path style="opacity:1" fill="#876b4f" d="M 816.5,538.5 C 812.069,538.231 807.735,538.564 803.5,539.5C 805.223,538.2 807.39,537.533 810,537.5C 812.361,537.504 814.527,537.837 816.5,538.5 Z"/></g>
<g><path style="opacity:1" fill="#c19161" d="M 816.5,538.5 C 827.477,538.539 838.144,540.372 848.5,544C 862.105,548.385 867.605,557.551 865,571.5C 862.83,580.175 858.83,587.842 853,594.5C 825.939,623.112 793.439,642.612 755.5,653C 780.397,619.028 796.397,581.194 803.5,539.5C 807.735,538.564 812.069,538.231 816.5,538.5 Z"/></g>
<g><path style="opacity:0.995" fill="#a16a41" d="M 395.5,750.5 C 403.73,749.742 410.73,752.242 416.5,758C 421.836,758.47 427.17,758.97 432.5,759.5C 434.369,759.493 436.036,759.16 437.5,758.5C 438.117,758.611 438.617,758.944 439,759.5C 448.757,750.927 458.924,750.427 469.5,758C 473.703,762.868 479.036,764.535 485.5,763C 502.72,749.051 518.387,750.718 532.5,768C 536.261,768.738 539.928,768.405 543.5,767C 547.907,763.047 553.074,760.88 559,760.5C 564.304,761.452 569.47,762.952 574.5,765C 578.106,766.274 580.773,768.607 582.5,772C 598.449,774.177 614.449,775.511 630.5,776C 632.027,773.561 634.027,771.561 636.5,770C 648.575,765.926 658.242,769.093 665.5,779.5C 675.253,773.808 684.587,774.475 693.5,781.5C 706.161,769.888 717.494,771.055 727.5,785C 729.833,785.667 732.167,785.667 734.5,785C 740.847,780.215 747.847,779.215 755.5,782C 758.128,784.466 761.128,786.299 764.5,787.5C 768.273,785.57 771.94,783.403 775.5,781C 778.817,780.502 782.15,780.335 785.5,780.5C 789.176,781.678 792.843,783.178 796.5,785C 800.5,785.333 804.5,785.667 808.5,786C 812.229,787.255 815.562,789.088 818.5,791.5C 824.467,799.57 826.633,808.57 825,818.5C 823.634,820.37 822.467,822.37 821.5,824.5C 828.812,835.048 830.645,846.381 827,858.5C 823.502,862.241 819.502,865.241 815,867.5C 814.825,873.607 813.992,879.607 812.5,885.5C 802.886,884.226 793.219,883.226 783.5,882.5C 778.079,882.472 773.413,884.306 769.5,888C 764.181,890.118 758.848,890.452 753.5,889C 747.553,885.201 741.553,881.701 735.5,878.5C 720.745,876.544 706.078,875.711 691.5,876C 682.365,873.381 673.031,872.381 663.5,873C 656.934,882.736 648.267,885.069 637.5,880C 634.035,877.537 630.869,874.704 628,871.5C 624.256,872.626 620.423,872.793 616.5,872C 612.833,870.333 609.167,868.667 605.5,867C 591.673,865.751 577.84,864.584 564,863.5C 550.826,865.726 537.993,864.559 525.5,860C 513.781,859.107 502.115,857.941 490.5,856.5C 482.779,866.437 472.779,869.604 460.5,866C 457.659,864.414 454.993,862.58 452.5,860.5C 448.071,861.486 443.738,860.986 439.5,859C 434.802,856.989 430.469,854.489 426.5,851.5C 415.654,858.65 405.321,857.817 395.5,849C 392.16,848.547 388.826,848.047 385.5,847.5C 377.189,848.575 368.855,848.741 360.5,848C 355.305,844.899 349.638,843.732 343.5,844.5C 343.663,842.143 343.497,839.81 343,837.5C 332.206,825.071 330.206,811.405 337,796.5C 340.173,790.819 343.839,785.486 348,780.5C 349.156,776.582 349.656,772.582 349.5,768.5C 349.959,763.266 350.626,758.1 351.5,753C 356.174,752.667 360.84,752.833 365.5,753.5C 371.478,754.409 377.478,754.575 383.5,754C 387.327,752.21 391.327,751.044 395.5,750.5 Z"/></g>
<g><path style="opacity:1" fill="#ebc182" d="M 394.5,767.5 C 404.123,766.786 408.123,771.119 406.5,780.5C 386.592,786.571 371.592,798.737 361.5,817C 362.229,818.992 363.729,819.826 366,819.5C 372.436,817.588 378.936,817.255 385.5,818.5C 382.215,819.324 378.882,819.824 375.5,820C 371.782,821.489 371.782,822.322 375.5,822.5C 384.412,819.759 393.412,819.259 402.5,821C 400.19,821.497 397.857,821.663 395.5,821.5C 395.5,822.5 395.5,823.5 395.5,824.5C 386.36,825.891 377.527,828.225 369,831.5C 359.985,830.716 353.985,826.049 351,817.5C 350.833,816 350.667,814.5 350.5,813C 352.15,804.225 356.15,796.725 362.5,790.5C 363.086,790.709 363.586,791.043 364,791.5C 368.501,786.61 373.001,781.777 377.5,777C 383.229,773.806 388.896,770.639 394.5,767.5 Z"/></g>
<g><path style="opacity:1" fill="#ecc283" d="M 455.5,769.5 C 459.382,770.548 462.215,772.881 464,776.5C 465.294,786.309 464.127,795.809 460.5,805C 462.197,808.263 463.197,811.763 463.5,815.5C 461.208,815.244 459.041,815.577 457,816.5C 454.863,824.206 452.863,831.873 451,839.5C 450.882,841.573 449.882,842.907 448,843.5C 443.724,842.455 441.224,839.789 440.5,835.5C 441.178,832.456 442.011,829.456 443,826.5C 443.667,825.167 444.333,825.167 445,826.5C 445.638,825.391 446.138,824.225 446.5,823C 445.833,822.333 445.167,821.667 444.5,821C 445.01,819.174 445.844,819.007 447,820.5C 447.483,819.552 447.649,818.552 447.5,817.5C 437.981,818.588 428.981,821.421 420.5,826C 418.732,831.038 416.065,835.538 412.5,839.5C 401.671,832.846 400.171,824.513 408,814.5C 418.798,802.033 429.965,789.867 441.5,778C 445.856,774.337 450.523,771.503 455.5,769.5 Z"/></g>
<g><path style="opacity:1" fill="#ebc282" d="M 530.5,813.5 C 528.049,814.894 525.382,815.728 522.5,816C 524.167,816.333 525.833,816.667 527.5,817C 515.215,821.232 502.549,823.232 489.5,823C 487.667,824.167 486.167,825.667 485,827.5C 481.252,834.404 477.752,841.404 474.5,848.5C 473.312,849.84 471.812,850.507 470,850.5C 468.2,849.622 466.367,848.955 464.5,848.5C 464.62,846.266 464.287,844.099 463.5,842C 466.37,837.259 468.704,832.259 470.5,827C 468.762,824.07 468.262,820.903 469,817.5C 472.424,814.549 476.091,811.883 480,809.5C 484.729,796.874 490.896,785.041 498.5,774C 507.54,768.26 514.706,770.094 520,779.5C 523.411,785.623 523.244,791.623 519.5,797.5C 518.252,796.96 517.085,796.293 516,795.5C 515.904,792.549 515.071,789.882 513.5,787.5C 512.3,788.531 510.966,789.365 509.5,790C 504.798,795.904 500.464,802.071 496.5,808.5C 497.729,809.281 499.062,809.781 500.5,810C 499.833,810.333 499.167,810.667 498.5,811C 502.5,811.333 506.5,811.667 510.5,812C 510.167,812.333 509.833,812.667 509.5,813C 516.684,813.136 523.684,813.303 530.5,813.5 Z"/></g>
<g><path style="opacity:1" fill="#ebc182" d="M 530.5,813.5 C 537.304,804.386 542.638,794.553 546.5,784C 551.178,782.48 555.511,780.314 559.5,777.5C 562.13,778.378 564.797,779.045 567.5,779.5C 567.722,782.39 567.055,785.057 565.5,787.5C 570.964,788.921 576.297,790.587 581.5,792.5C 582.833,793.167 582.833,793.833 581.5,794.5C 579.775,795.015 578.108,795.682 576.5,796.5C 579.704,796.915 582.871,796.248 586,794.5C 586.167,794.833 586.333,795.167 586.5,795.5C 584.78,796.934 582.78,797.767 580.5,798C 571.854,799.479 563.187,800.812 554.5,802C 552.595,803.815 550.928,805.815 549.5,808C 555.774,807.124 562.107,806.791 568.5,807C 570.859,809.426 572.026,812.259 572,815.5C 562.585,817.289 553.085,818.789 543.5,820C 540.123,824.282 537.789,829.116 536.5,834.5C 537.09,835.799 538.09,836.632 539.5,837C 545.521,837.592 551.521,837.925 557.5,838C 553.735,836.623 554.068,835.623 558.5,835C 570.307,833.112 570.307,833.779 558.5,837C 563.566,836.888 568.566,836.055 573.5,834.5C 574.167,834.667 574.833,834.833 575.5,835C 572.432,836.016 569.432,837.183 566.5,838.5C 566.709,839.086 567.043,839.586 567.5,840C 561.911,841.654 556.244,842.987 550.5,844C 556.847,844.666 563.014,843.833 569,841.5C 569.833,841.667 570.667,841.833 571.5,842C 561.612,846.148 551.279,847.814 540.5,847C 528.671,842.58 524.171,834.08 527,821.5C 528.454,818.929 529.62,816.262 530.5,813.5 Z"/></g>
<g><path style="opacity:1" fill="#a56e44" d="M 455.5,783.5 C 456.376,783.369 457.043,783.702 457.5,784.5C 455.572,789.785 453.738,795.118 452,800.5C 451.586,800.043 451.086,799.709 450.5,799.5C 449.218,801.179 448.218,803.013 447.5,805C 441.281,805.426 435.781,807.592 431,811.5C 433.643,806.31 437.31,801.643 442,797.5C 442.333,796.167 442.667,794.833 443,793.5C 443.667,792.167 444.333,792.167 445,793.5C 448.396,789.935 451.896,786.602 455.5,783.5 Z"/></g>
<g><path style="opacity:1" fill="#ecc283" d="M 663.5,834.5 C 662.923,833.227 662.257,833.227 661.5,834.5C 659.957,837.086 658.291,839.586 656.5,842C 657.416,842.278 658.082,842.778 658.5,843.5C 655.438,843.841 653.272,845.508 652,848.5C 651.636,851.738 650.97,854.738 650,857.5C 652.043,855.792 653.71,853.792 655,851.5C 653.294,856.43 650.794,861.097 647.5,865.5C 642.704,863.076 639.704,859.243 638.5,854C 640.886,846.394 644.219,839.228 648.5,832.5C 642.833,831.167 637.167,831.167 631.5,832.5C 627.887,840.059 624.553,847.725 621.5,855.5C 616.11,852.657 613.61,848.324 614,842.5C 615.136,839.904 615.969,837.237 616.5,834.5C 613.753,834.813 611.086,834.48 608.5,833.5C 611.304,830.327 615.137,827.66 620,825.5C 627.439,810.932 636.106,797.265 646,784.5C 653.925,788.97 655.592,795.304 651,803.5C 647.417,809.526 643.251,815.026 638.5,820C 640.788,820.418 642.788,819.751 644.5,818C 649.217,817.524 653.883,817.524 658.5,818C 664.99,810.02 670.99,801.686 676.5,793C 679.217,791.967 681.051,792.8 682,795.5C 682.767,799.594 682.434,803.594 681,807.5C 678.032,812.48 675.032,817.48 672,822.5C 668.539,823.292 666.539,825.292 666,828.5C 666.718,827.549 667.551,827.383 668.5,828C 666.934,830.326 665.268,832.492 663.5,834.5 Z"/></g>
<g><path style="opacity:1" fill="#ebc282" d="M 710.5,814.5 C 708.035,813.556 706.368,814.556 705.5,817.5C 705.957,818.298 706.624,818.631 707.5,818.5C 707.205,820.423 706.372,822.09 705,823.5C 704.508,822.451 704.674,821.451 705.5,820.5C 705.154,819.304 704.654,819.304 704,820.5C 704.579,825.56 702.746,829.393 698.5,832C 699.535,833.507 699.368,835.007 698,836.5C 697.683,834.699 697.016,834.366 696,835.5C 695.503,837.81 695.337,840.143 695.5,842.5C 703.848,842.661 711.515,840.494 718.5,836C 730.262,824.774 739.262,812.274 745.5,798.5C 748.228,797.06 750.395,797.726 752,800.5C 752.075,804.733 752.908,808.733 754.5,812.5C 754.152,815.181 752.652,816.847 750,817.5C 750.617,819.095 750.284,820.428 749,821.5C 748.107,820.289 747.274,820.289 746.5,821.5C 743.344,827.673 739.344,833.34 734.5,838.5C 734.667,838.833 734.833,839.167 735,839.5C 737.901,836.688 740.568,833.688 743,830.5C 734.251,847.696 720.084,857.363 700.5,859.5C 687.421,857.922 681.587,850.588 683,837.5C 690.515,821.636 698.681,806.136 707.5,791C 709.112,790.28 710.612,790.446 712,791.5C 713.554,795.343 715.387,799.01 717.5,802.5C 715.155,806.528 712.822,810.528 710.5,814.5 Z"/></g>
<g><path style="opacity:1" fill="#ebc283" d="M 780.5,797.5 C 786.605,797.254 788.939,799.921 787.5,805.5C 792.028,804.654 796.528,803.654 801,802.5C 805.654,802.991 808.154,805.657 808.5,810.5C 807.696,813.44 806.363,816.107 804.5,818.5C 797.763,821.909 791.097,825.409 784.5,829C 792.949,828.23 800.615,830.23 807.5,835C 810.444,838.995 812.11,843.495 812.5,848.5C 807.743,851.051 803.077,853.885 798.5,857C 796.167,857.333 793.833,857.667 791.5,858C 790.833,859 790.167,860 789.5,861C 787.167,861.333 784.833,861.667 782.5,862C 774.844,865.322 767.344,868.822 760,872.5C 757.448,871.629 755.114,870.295 753,868.5C 752.503,865.854 752.336,863.187 752.5,860.5C 754.308,860.509 755.975,860.009 757.5,859C 756.069,858.535 754.903,857.701 754,856.5C 754.675,854.728 754.509,852.895 753.5,851C 757.189,842.453 761.023,833.953 765,825.5C 764.845,823.189 764.845,820.856 765,818.5C 766.973,817.36 768.807,816.027 770.5,814.5C 773.593,808.641 776.926,802.975 780.5,797.5 Z"/></g>
<g><path style="opacity:1" fill="#c79762" d="M 710.5,814.5 C 709.974,816.23 708.974,817.564 707.5,818.5C 706.624,818.631 705.957,818.298 705.5,817.5C 706.368,814.556 708.035,813.556 710.5,814.5 Z"/></g>
<g><path style="opacity:1" fill="#dbae74" d="M 386.5,817.5 C 389.976,816.357 393.642,816.19 397.5,817C 393.941,818.819 390.274,818.986 386.5,817.5 Z"/></g>
<g><path style="opacity:1" fill="#bc8959" d="M 512.5,816.5 C 514.857,816.337 517.19,816.503 519.5,817C 516.634,818.457 513.634,818.79 510.5,818C 511.416,817.722 512.082,817.222 512.5,816.5 Z"/></g>
<g><path style="opacity:1" fill="#b17d4f" d="M 426.5,819.5 C 427.552,819.351 428.552,819.517 429.5,820C 427.35,821.59 425.017,822.257 422.5,822C 424.066,821.392 425.4,820.558 426.5,819.5 Z"/></g>
<g><path style="opacity:1" fill="#a46e44" d="M 770.5,838.5 C 778.808,839.205 787.141,839.705 795.5,840C 796.938,840.219 798.271,840.719 799.5,841.5C 795.179,845.665 790.179,848.831 784.5,851C 778.462,853.199 772.296,855.032 766,856.5C 765.508,855.451 765.674,854.451 766.5,853.5C 765.833,852.833 765.167,852.167 764.5,851.5C 767.853,847.794 769.853,843.461 770.5,838.5 Z"/></g>
<g><path style="opacity:1" fill="#d4a66e" d="M 663.5,834.5 C 662.59,837.992 660.924,840.992 658.5,843.5C 658.082,842.778 657.416,842.278 656.5,842C 658.291,839.586 659.957,837.086 661.5,834.5C 662.257,833.227 662.923,833.227 663.5,834.5 Z"/></g>
<g><path style="opacity:1" fill="#b58152" d="M 720.5,849.5 C 721.552,849.351 722.552,849.517 723.5,850C 720.942,851.626 718.275,852.626 715.5,853C 717.233,851.811 718.9,850.644 720.5,849.5 Z"/></g>
<g><path style="opacity:1" fill="#b17c4f" d="M 709.5,853.5 C 714.1,853.345 714.433,854.012 710.5,855.5C 708.279,855.561 707.946,854.895 709.5,853.5 Z"/></g>
<g><path style="opacity:0.911" fill="#eec585" d="M 425.5,941.5 C 435.833,941.5 446.167,941.5 456.5,941.5C 456.5,943.167 456.5,944.833 456.5,946.5C 448.833,946.5 441.167,946.5 433.5,946.5C 433.5,952.167 433.5,957.833 433.5,963.5C 439.5,963.5 445.5,963.5 451.5,963.5C 451.5,965.167 451.5,966.833 451.5,968.5C 445.5,968.5 439.5,968.5 433.5,968.5C 433.5,974.167 433.5,979.833 433.5,985.5C 441.167,985.5 448.833,985.5 456.5,985.5C 456.5,987.167 456.5,988.833 456.5,990.5C 446.167,990.5 435.833,990.5 425.5,990.5C 425.5,974.167 425.5,957.833 425.5,941.5 Z"/></g>
<g><path style="opacity:0.879" fill="#eec585" d="M 480.5,941.5 C 484.846,941.334 489.179,941.501 493.5,942C 496.071,942.901 498.404,944.234 500.5,946C 499.733,948.053 498.4,949.553 496.5,950.5C 492.234,947.745 487.567,946.911 482.5,948C 477.715,951.26 477.381,954.927 481.5,959C 486.916,961.139 492.249,963.472 497.5,966C 502.656,972.299 502.822,978.799 498,985.5C 496.269,987.617 494.102,989.117 491.5,990C 486.833,990.667 482.167,990.667 477.5,990C 474.274,988.894 471.607,987.061 469.5,984.5C 469.96,982.214 471.293,980.881 473.5,980.5C 476.898,983.115 480.732,984.781 485,985.5C 491.733,984.775 494.733,981.108 494,974.5C 492.833,973.333 491.667,972.167 490.5,971C 485.42,969.196 480.42,967.196 475.5,965C 468.958,955.326 470.624,947.493 480.5,941.5 Z"/></g>
<g><path style="opacity:0.872" fill="#eec585" d="M 513.5,941.5 C 526.167,941.5 538.833,941.5 551.5,941.5C 551.5,943.167 551.5,944.833 551.5,946.5C 546.5,946.5 541.5,946.5 536.5,946.5C 536.5,961.167 536.5,975.833 536.5,990.5C 533.833,990.5 531.167,990.5 528.5,990.5C 528.5,975.833 528.5,961.167 528.5,946.5C 523.5,946.5 518.5,946.5 513.5,946.5C 513.5,944.833 513.5,943.167 513.5,941.5 Z"/></g>
<g><path style="opacity:0.899" fill="#eec485" d="M 594.5,941.5 C 613.663,940.491 619.496,948.824 612,966.5C 606.532,972.969 600.699,979.136 594.5,985C 601.826,985.5 609.159,985.666 616.5,985.5C 616.5,987.167 616.5,988.833 616.5,990.5C 605.5,990.5 594.5,990.5 583.5,990.5C 583.343,989.127 583.51,987.793 584,986.5C 593.525,978.321 601.525,968.988 608,958.5C 608.895,948.175 604.395,945.009 594.5,949C 593.167,951.333 591.833,953.667 590.5,956C 588.191,956.756 586.191,956.256 584.5,954.5C 585.701,948.389 589.035,944.056 594.5,941.5 Z"/></g>
<g><path style="opacity:0.875" fill="#edc485" d="M 642.5,941.5 C 654.74,939.595 662.24,944.595 665,956.5C 667.33,967.193 665.664,977.193 660,986.5C 645.345,994.675 635.678,990.675 631,974.5C 629.416,965.011 630.75,956.011 635,947.5C 637.114,944.879 639.614,942.879 642.5,941.5 Z M 644.5,947.5 C 652.235,946.395 656.735,949.729 658,957.5C 658.667,963.5 658.667,969.5 658,975.5C 655.866,984.306 650.699,986.806 642.5,983C 640.064,980.293 638.564,977.127 638,973.5C 636.709,965.491 637.709,957.824 641,950.5C 642.145,949.364 643.312,948.364 644.5,947.5 Z"/></g>
<g><path style="opacity:0.898" fill="#edc485" d="M 690.5,941.5 C 702.575,939.014 709.575,943.68 711.5,955.5C 710.764,960.305 708.93,964.638 706,968.5C 700.467,973.698 695.3,979.198 690.5,985C 697.5,985.333 704.5,985.667 711.5,986C 712.38,987.356 712.714,988.856 712.5,990.5C 701.5,990.5 690.5,990.5 679.5,990.5C 679.34,988.801 679.506,987.134 680,985.5C 686.667,978.833 693.333,972.167 700,965.5C 702.452,962.427 703.952,958.927 704.5,955C 702.904,947.899 698.571,945.565 691.5,948C 689.257,950.488 687.257,953.154 685.5,956C 683.045,956.772 681.378,955.939 680.5,953.5C 682.062,947.945 685.395,943.945 690.5,941.5 Z"/></g>
<g><path style="opacity:0.888" fill="#eec484" d="M 747.5,941.5 C 749.833,941.5 752.167,941.5 754.5,941.5C 754.5,951.833 754.5,962.167 754.5,972.5C 756.833,972.5 759.167,972.5 761.5,972.5C 761.5,974.167 761.5,975.833 761.5,977.5C 759.167,977.5 756.833,977.5 754.5,977.5C 754.5,981.833 754.5,986.167 754.5,990.5C 752.167,990.5 749.833,990.5 747.5,990.5C 747.5,986.167 747.5,981.833 747.5,977.5C 740.159,977.666 732.826,977.5 725.5,977C 724.424,975.274 724.257,973.441 725,971.5C 732.332,961.34 739.832,951.34 747.5,941.5 Z M 747.5,951.5 C 747.5,958.5 747.5,965.5 747.5,972.5C 742.489,972.666 737.489,972.499 732.5,972C 737.363,964.984 742.363,958.151 747.5,951.5 Z"/></g>
<g><path style="opacity:0.874" fill="#eec484" d="M 561.5,981.5 C 568.486,981.018 570.486,983.852 567.5,990C 560.215,990.934 558.215,988.101 561.5,981.5 Z"/></g>
</svg>
