<?xml version="1.0" encoding="UTF-8"?>
<!DOCTYPE svg PUBLIC "-//W3C//DTD SVG 1.1//EN" "http://www.w3.org/Graphics/SVG/1.1/DTD/svg11.dtd">
<svg xmlns="http://www.w3.org/2000/svg" version="1.1" width="512px" height="512px" style="shape-rendering:geometricPrecision; text-rendering:geometricPrecision; image-rendering:optimizeQuality; fill-rule:evenodd; clip-rule:evenodd" xmlns:xlink="http://www.w3.org/1999/xlink">
<g><path style="opacity:0.986" fill="#010000" d="M 143.5,-0.5 C 218.167,-0.5 292.833,-0.5 367.5,-0.5C 375.133,1.9372 381.633,6.27053 387,12.5C 390.755,19.0089 394.255,25.6755 397.5,32.5C 421.57,33.4309 436.736,45.4309 443,68.5C 443.667,81.5 443.667,94.5 443,107.5C 439.766,115.226 433.933,119.226 425.5,119.5C 412.33,243.863 398.83,368.196 385,492.5C 382.045,501.617 376.211,507.95 367.5,511.5C 292.833,511.5 218.167,511.5 143.5,511.5C 134.789,507.95 128.955,501.617 126,492.5C 112.17,368.196 98.6699,243.863 85.5,119.5C 77.0672,119.226 71.2339,115.226 68,107.5C 67.3333,94.5 67.3333,81.5 68,68.5C 71.4394,51.7259 81.2728,40.5592 97.5,35C 102.809,34.0571 108.142,33.2237 113.5,32.5C 116.745,25.6755 120.245,19.0089 124,12.5C 129.367,6.27053 135.867,1.9372 143.5,-0.5 Z"/></g>
<g><path style="opacity:1" fill="#fddd00" d="M 352.5,16.5 C 356.277,21.7185 359.277,27.3852 361.5,33.5C 285.332,33.8326 209.332,33.4993 133.5,32.5C 135.46,25.3709 139.793,20.2043 146.5,17C 215.166,16.5 283.833,16.3333 352.5,16.5 Z"/></g>
<g><path style="opacity:1" fill="#f8bd07" d="M 352.5,16.5 C 365.552,14.5645 373.886,19.8978 377.5,32.5C 372.36,33.4881 367.026,33.8214 361.5,33.5C 359.277,27.3852 356.277,21.7185 352.5,16.5 Z"/></g>
<g><path style="opacity:1" fill="#332c00" d="M 133.5,32.5 C 209.332,33.4993 285.332,33.8326 361.5,33.5C 367.026,33.8214 372.36,33.4881 377.5,32.5C 378.043,32.56 378.376,32.8933 378.5,33.5C 296.5,34.8333 214.5,34.8333 132.5,33.5C 132.624,32.8933 132.957,32.56 133.5,32.5 Z"/></g>
<g><path style="opacity:1" fill="#feea39" d="M 104.5,51.5 C 202.501,51.3333 300.501,51.5 398.5,52C 403.673,57.1744 407.173,63.3411 409,70.5C 409.5,80.828 409.666,91.1613 409.5,101.5C 301.5,101.5 193.5,101.5 85.5,101.5C 85.5,91.5 85.5,81.5 85.5,71.5C 87.7304,60.9363 94.0637,54.2696 104.5,51.5 Z"/></g>
<g><path style="opacity:1" fill="#f0d032" d="M 104.5,51.5 C 204.332,50.3342 304.332,50.1675 404.5,51C 415.98,53.314 422.98,60.1473 425.5,71.5C 425.5,81.5 425.5,91.5 425.5,101.5C 420.167,101.5 414.833,101.5 409.5,101.5C 409.666,91.1613 409.5,80.828 409,70.5C 407.173,63.3411 403.673,57.1744 398.5,52C 300.501,51.5 202.501,51.3333 104.5,51.5 Z"/></g>
<g><path style="opacity:1" fill="#6e6418" d="M 85.5,71.5 C 85.5,81.5 85.5,91.5 85.5,101.5C 193.5,101.5 301.5,101.5 409.5,101.5C 414.833,101.5 420.167,101.5 425.5,101.5C 425.5,91.5 425.5,81.5 425.5,71.5C 426.494,81.6532 426.828,91.9865 426.5,102.5C 312.5,102.5 198.5,102.5 84.5,102.5C 84.1724,91.9865 84.5058,81.6532 85.5,71.5 Z"/></g>
<g><path style="opacity:1" fill="#532b17" d="M 407.5,121.5 C 402.265,119.55 396.598,118.883 390.5,119.5C 294.494,118.836 198.828,119.502 103.5,121.5C 102.596,120.791 102.263,119.791 102.5,118.5C 204.5,118.5 306.5,118.5 408.5,118.5C 408.737,119.791 408.404,120.791 407.5,121.5 Z"/></g>
<g><path style="opacity:1" fill="#9f512c" d="M 390.5,119.5 C 388.772,141.906 386.439,164.24 383.5,186.5C 292.5,186.5 201.5,186.5 110.5,186.5C 107.655,164.892 105.321,143.225 103.5,121.5C 198.828,119.502 294.494,118.836 390.5,119.5 Z"/></g>
<g><path style="opacity:1" fill="#763d21" d="M 390.5,119.5 C 396.598,118.883 402.265,119.55 407.5,121.5C 405.606,143.548 403.272,165.548 400.5,187.5C 303.665,187.833 206.999,187.499 110.5,186.5C 201.5,186.5 292.5,186.5 383.5,186.5C 386.439,164.24 388.772,141.906 390.5,119.5 Z"/></g>
<g><path style="opacity:1" fill="#fedfb1" d="M 381.5,204.5 C 375.664,261.19 369.664,317.857 363.5,374.5C 285.833,374.5 208.167,374.5 130.5,374.5C 124.28,317.857 118.28,261.191 112.5,204.5C 202.167,204.5 291.833,204.5 381.5,204.5 Z"/></g>
<g><path style="opacity:1" fill="#d5bb95" d="M 381.5,204.5 C 387.167,204.5 392.833,204.5 398.5,204.5C 392.646,261.517 386.646,318.517 380.5,375.5C 296.998,375.833 213.665,375.499 130.5,374.5C 208.167,374.5 285.833,374.5 363.5,374.5C 369.664,317.857 375.664,261.19 381.5,204.5 Z"/></g>
<g><path style="opacity:1" fill="#030201" d="M 245.5,221.5 C 276.337,219.847 297.837,233.18 310,261.5C 320.941,294.044 314.108,322.211 289.5,346C 256.849,366.128 229.349,360.628 207,329.5C 190.085,298.796 192.085,269.463 213,241.5C 222.117,231.867 232.95,225.2 245.5,221.5 Z"/></g>
<g><path style="opacity:1" fill="#6b4021" d="M 259.5,238.5 C 276.284,241.776 287.784,251.443 294,267.5C 301.949,288.35 299.283,307.683 286,325.5C 281.959,329.765 277.459,333.432 272.5,336.5C 272.167,335.833 271.833,335.167 271.5,334.5C 277.693,313.947 273.526,295.947 259,280.5C 252.941,266.445 253.107,252.445 259.5,238.5 Z"/></g>
<g><path style="opacity:1" fill="#8f542c" d="M 238.5,242.5 C 239.097,242.735 239.43,243.235 239.5,244C 235.492,260.245 237.326,275.745 245,290.5C 255.48,299.943 259.146,311.609 256,325.5C 255.313,329.58 254.313,333.58 253,337.5C 252.592,339.41 251.425,340.41 249.5,340.5C 233.803,336.304 222.97,326.638 217,311.5C 207.046,282.874 214.213,259.874 238.5,242.5 Z"/></g>
<g><path style="opacity:1" fill="#4a2514" d="M 377.5,396.5 C 377.5,395.167 377.5,393.833 377.5,392.5C 372.167,392.5 366.833,392.5 361.5,392.5C 285.5,392.5 209.5,392.5 133.5,392.5C 133.5,393.833 133.5,395.167 133.5,396.5C 132.549,395.081 132.216,393.415 132.5,391.5C 214.5,391.5 296.5,391.5 378.5,391.5C 378.784,393.415 378.451,395.081 377.5,396.5 Z"/></g>
<g><path style="opacity:1" fill="#9f512c" d="M 361.5,392.5 C 357.83,426.533 353.83,460.533 349.5,494.5C 282.499,494.667 215.499,494.5 148.5,494C 146,492.833 144.167,491 143,488.5C 139.504,457.862 136.337,427.195 133.5,396.5C 133.5,395.167 133.5,393.833 133.5,392.5C 209.5,392.5 285.5,392.5 361.5,392.5 Z"/></g>
<g><path style="opacity:1" fill="#773d21" d="M 361.5,392.5 C 366.833,392.5 372.167,392.5 377.5,392.5C 377.5,393.833 377.5,395.167 377.5,396.5C 374.547,427.909 371.047,459.243 367,490.5C 365.786,492.049 364.286,493.215 362.5,494C 358.179,494.499 353.846,494.666 349.5,494.5C 353.83,460.533 357.83,426.533 361.5,392.5 Z"/></g>
<g><path style="opacity:1" fill="#010000" d="M 166.5,460.5 C 225.501,460.333 284.501,460.5 343.5,461C 349.455,463.573 350.955,467.739 348,473.5C 346.681,475.487 344.848,476.654 342.5,477C 284.167,477.667 225.833,477.667 167.5,477C 159.959,471.925 159.626,466.425 166.5,460.5 Z"/></g>
</svg>
