<?xml version="1.0" encoding="UTF-8"?>
<!DOCTYPE svg PUBLIC "-//W3C//DTD SVG 1.1//EN" "http://www.w3.org/Graphics/SVG/1.1/DTD/svg11.dtd">
<svg xmlns="http://www.w3.org/2000/svg" version="1.1" width="512px" height="512px" style="shape-rendering:geometricPrecision; text-rendering:geometricPrecision; image-rendering:optimizeQuality; fill-rule:evenodd; clip-rule:evenodd" xmlns:xlink="http://www.w3.org/1999/xlink">
<g><path style="opacity:0.997" fill="#303030" d="M 113.5,-0.5 C 190.167,-0.5 266.833,-0.5 343.5,-0.5C 352.833,15.1667 362.167,30.8333 371.5,46.5C 275.999,46.8327 180.665,46.4994 85.5,45.5C 94.4363,29.9033 103.77,14.5699 113.5,-0.5 Z"/></g>
<g><path style="opacity:1" fill="#232323" d="M 343.5,-0.5 C 361.5,-0.5 379.5,-0.5 397.5,-0.5C 407.23,14.5699 416.564,29.9033 425.5,45.5C 416.014,46.4938 406.348,46.8271 396.5,46.5C 388.167,46.5 379.833,46.5 371.5,46.5C 362.167,30.8333 352.833,15.1667 343.5,-0.5 Z"/></g>
<g><path style="opacity:0.998" fill="#494949" d="M 85.5,45.5 C 180.665,46.4994 275.999,46.8327 371.5,46.5C 379.833,46.5 388.167,46.5 396.5,46.5C 396.5,67.5 396.5,88.5 396.5,109.5C 392.167,109.5 387.833,109.5 383.5,109.5C 283.167,109.5 182.833,109.5 82.5,109.5C 76.8236,109.666 71.1569,109.499 65.5,109C 63.9512,107.786 62.7845,106.286 62,104.5C 61.3333,86.8333 61.3333,69.1667 62,51.5C 62.9404,48.2268 65.1071,46.3935 68.5,46C 74.1569,45.5006 79.8236,45.3339 85.5,45.5 Z"/></g>
<g><path style="opacity:1" fill="#303030" d="M 425.5,45.5 C 431.176,45.3339 436.843,45.5006 442.5,46C 445.893,46.3935 448.06,48.2268 449,51.5C 449.667,69.1667 449.667,86.8333 449,104.5C 448.215,106.286 447.049,107.786 445.5,109C 439.843,109.499 434.176,109.666 428.5,109.5C 417.833,109.5 407.167,109.5 396.5,109.5C 396.5,88.5 396.5,67.5 396.5,46.5C 406.348,46.8271 416.014,46.4938 425.5,45.5 Z"/></g>
<g><path style="opacity:0.998" fill="#dfdfdf" d="M 82.5,109.5 C 182.833,109.5 283.167,109.5 383.5,109.5C 381.387,132.188 379.054,154.855 376.5,177.5C 281.167,177.5 185.833,177.5 90.5,177.5C 88.1597,154.778 85.493,132.112 82.5,109.5 Z"/></g>
<g><path style="opacity:1" fill="#c6c6c6" d="M 383.5,109.5 C 387.833,109.5 392.167,109.5 396.5,109.5C 407.167,109.5 417.833,109.5 428.5,109.5C 425.507,132.112 422.84,154.778 420.5,177.5C 411.5,177.5 402.5,177.5 393.5,177.5C 387.833,177.5 382.167,177.5 376.5,177.5C 379.054,154.855 381.387,132.188 383.5,109.5 Z"/></g>
<g><path style="opacity:0.998" fill="#fe9017" d="M 90.5,177.5 C 185.833,177.5 281.167,177.5 376.5,177.5C 382.167,177.5 387.833,177.5 393.5,177.5C 385.454,249.578 377.121,321.578 368.5,393.5C 362.5,393.5 356.5,393.5 350.5,393.5C 272.167,393.5 193.833,393.5 115.5,393.5C 110.821,393.666 106.155,393.499 101.5,393C 100.333,391.833 99.1667,390.667 98,389.5C 89.5827,322.411 81.7493,255.245 74.5,188C 74.3066,184.757 74.9733,181.757 76.5,179C 81.036,177.621 85.7027,177.121 90.5,177.5 Z"/></g>
<g><path style="opacity:1" fill="#ed7d0c" d="M 393.5,177.5 C 402.5,177.5 411.5,177.5 420.5,177.5C 425.297,177.121 429.964,177.621 434.5,179C 436.027,181.757 436.693,184.757 436.5,188C 429.251,255.245 421.417,322.411 413,389.5C 411.833,390.667 410.667,391.833 409.5,393C 404.845,393.499 400.179,393.666 395.5,393.5C 386.5,393.5 377.5,393.5 368.5,393.5C 377.121,321.578 385.454,249.578 393.5,177.5 Z"/></g>
<g><path style="opacity:1" fill="#633018" d="M 261.5,222.5 C 259.801,222.34 258.134,222.506 256.5,223C 254.636,225.688 252.636,228.188 250.5,230.5C 247.131,228.485 243.798,226.485 240.5,224.5C 247.301,221.515 254.301,220.848 261.5,222.5 Z"/></g>
<g><path style="opacity:1" fill="#482013" d="M 261.5,222.5 C 265.832,222.279 269.832,223.279 273.5,225.5C 268.686,231.117 264.353,237.117 260.5,243.5C 254.553,255.927 255.386,267.927 263,279.5C 267.722,284.61 270.555,290.61 271.5,297.5C 272.782,304.804 272.616,312.137 271,319.5C 268.275,327.281 264.775,334.615 260.5,341.5C 254.782,342.83 249.116,342.497 243.5,340.5C 243.389,339.883 243.056,339.383 242.5,339C 251.589,329.487 256.589,318.153 257.5,305C 257.477,302.075 256.977,299.241 256,296.5C 248.893,287.285 244.226,276.952 242,265.5C 240.906,252.878 243.739,241.211 250.5,230.5C 252.636,228.188 254.636,225.688 256.5,223C 258.134,222.506 259.801,222.34 261.5,222.5 Z"/></g>
<g><path style="opacity:1" fill="#7c3d1d" d="M 240.5,224.5 C 243.798,226.485 247.131,228.485 250.5,230.5C 243.739,241.211 240.906,252.878 242,265.5C 244.226,276.952 248.893,287.285 256,296.5C 256.977,299.241 257.477,302.075 257.5,305C 256.589,318.153 251.589,329.487 242.5,339C 243.056,339.383 243.389,339.883 243.5,340.5C 222.906,332.394 210.406,317.394 206,295.5C 201.658,271.197 208.158,250.364 225.5,233C 229.905,229.13 234.905,226.297 240.5,224.5 Z"/></g>
<g><path style="opacity:1" fill="#602e18" d="M 273.5,225.5 C 288.114,232.619 297.947,243.952 303,259.5C 310.077,283.57 306.077,305.57 291,325.5C 282.759,334.591 272.592,339.924 260.5,341.5C 264.775,334.615 268.275,327.281 271,319.5C 272.616,312.137 272.782,304.804 271.5,297.5C 272.322,295.611 273.155,293.611 274,291.5C 275.266,275.163 271.933,259.83 264,245.5C 263.184,244.177 262.017,243.511 260.5,243.5C 264.353,237.117 268.686,231.117 273.5,225.5 Z"/></g>
<g><path style="opacity:1" fill="#7a3c1d" d="M 260.5,243.5 C 262.017,243.511 263.184,244.177 264,245.5C 271.933,259.83 275.266,275.163 274,291.5C 273.155,293.611 272.322,295.611 271.5,297.5C 270.555,290.61 267.722,284.61 263,279.5C 255.386,267.927 254.553,255.927 260.5,243.5 Z"/></g>
<g><path style="opacity:0.997" fill="#dfdfdf" d="M 115.5,393.5 C 193.833,393.5 272.167,393.5 350.5,393.5C 346.897,432.926 342.564,472.26 337.5,511.5C 269.167,511.5 200.833,511.5 132.5,511.5C 129.683,508.858 128.183,505.525 128,501.5C 123.869,465.486 119.702,429.486 115.5,393.5 Z"/></g>
<g><path style="opacity:1" fill="#c6c6c6" d="M 350.5,393.5 C 356.5,393.5 362.5,393.5 368.5,393.5C 377.5,393.5 386.5,393.5 395.5,393.5C 391.247,431.191 386.747,468.858 382,506.5C 381.303,508.584 380.136,510.251 378.5,511.5C 364.833,511.5 351.167,511.5 337.5,511.5C 342.564,472.26 346.897,432.926 350.5,393.5 Z"/></g>
</svg>
