<?xml version="1.0" encoding="UTF-8"?>
<!DOCTYPE svg PUBLIC "-//W3C//DTD SVG 1.1//EN" "http://www.w3.org/Graphics/SVG/1.1/DTD/svg11.dtd">
<svg xmlns="http://www.w3.org/2000/svg" version="1.1" width="512px" height="512px" style="shape-rendering:geometricPrecision; text-rendering:geometricPrecision; image-rendering:optimizeQuality; fill-rule:evenodd; clip-rule:evenodd" xmlns:xlink="http://www.w3.org/1999/xlink">
<g><path style="opacity:0.982" fill="#fefffe" d="M 56.5,55.5 C 63.8773,54.6893 70.8773,55.856 77.5,59C 136.68,118.347 196.014,177.514 255.5,236.5C 314.986,177.514 374.32,118.347 433.5,59C 448.991,51.4547 461.157,54.9547 470,69.5C 472.456,77.7847 471.789,85.7847 468,93.5C 401.833,159.667 335.667,225.833 269.5,292C 260.167,296.667 250.833,296.667 241.5,292C 175.333,225.833 109.167,159.667 43,93.5C 35.1456,76.2197 39.6456,63.553 56.5,55.5 Z"/></g>
<g><path style="opacity:0.982" fill="#fefffe" d="M 56.5,215.5 C 63.8773,214.689 70.8773,215.856 77.5,219C 136.68,278.347 196.014,337.514 255.5,396.5C 314.986,337.514 374.32,278.347 433.5,219C 448.991,211.455 461.157,214.955 470,229.5C 472.456,237.785 471.789,245.785 468,253.5C 401.833,319.667 335.667,385.833 269.5,452C 260.167,456.667 250.833,456.667 241.5,452C 175.333,385.833 109.167,319.667 43,253.5C 35.1456,236.22 39.6456,223.553 56.5,215.5 Z"/></g>
</svg>
